<svg xmlns="http://www.w3.org/2000/svg" xmlns:xlink="http://www.w3.org/1999/xlink" viewBox="340 265 720 305" preserveAspectRatio="xMidYMid meet" version="1.0"><defs><g/><clipPath id="d4c1e1d6b1"><rect x="0" width="668" y="0" height="304"/></clipPath><clipPath id="98829cd560"><rect x="0" width="196" y="0" height="165"/></clipPath></defs><rect x="340" width="720" fill="#3d5a3e" y="265" height="305" fill-opacity="1"/><g transform="matrix(1, 0, 0, 1, 371, 217)"><g clip-path="url(#d4c1e1d6b1)"><g fill="#ebfedf" fill-opacity="0.302"><g transform="translate(3.288249, 230.390906)"><g><path d="M 78.796875 3.75 C 57.460938 3.75 40.757812 -1.875 28.6875 -13.125 C 16.625 -24.382812 10.59375 -40.171875 10.59375 -60.484375 C 10.59375 -73.140625 12.765625 -84.875 17.109375 -95.6875 C 21.453125 -106.5 27.554688 -115.953125 35.421875 -124.046875 C 43.296875 -132.140625 52.492188 -138.429688 63.015625 -142.921875 C 73.535156 -147.410156 84.976562 -149.65625 97.34375 -149.65625 C 112.789062 -149.65625 127.140625 -145.976562 140.390625 -138.625 L 135.09375 -103.96875 L 132.875 -103.96875 L 124.5 -126.921875 C 122.144531 -133.691406 119.3125 -138.4375 116 -141.15625 C 112.6875 -143.882812 107.351562 -145.25 100 -145.25 C 88.664062 -145.25 78.65625 -141.53125 69.96875 -134.09375 C 61.289062 -126.664062 54.519531 -116.515625 49.65625 -103.640625 C 44.800781 -90.765625 42.375 -76.082031 42.375 -59.59375 C 42.375 -47.382812 44.03125 -36.863281 47.34375 -28.03125 C 50.65625 -19.207031 55.109375 -12.4375 60.703125 -7.71875 C 66.296875 -3.007812 72.625 -0.65625 79.6875 -0.65625 C 83.507812 -0.65625 86.5625 -1.425781 88.84375 -2.96875 C 91.125 -4.519531 92.632812 -7.578125 93.375 -12.140625 L 94.6875 -18.984375 C 95.425781 -23.691406 96.3125 -29.132812 97.34375 -35.3125 C 98.375 -41.5 99.257812 -47.460938 100 -53.203125 C 101.46875 -60.992188 98.300781 -66.140625 90.5 -68.640625 L 85.640625 -70.1875 L 86.09375 -72.40625 L 145.90625 -72.40625 L 145.46875 -70.1875 L 140.609375 -67.984375 C 135.160156 -65.773438 131.847656 -61.65625 130.671875 -55.625 L 121.1875 -5.515625 C 114.707031 -2.722656 108.191406 -0.480469 101.640625 1.203125 C 95.097656 2.898438 87.484375 3.75 78.796875 3.75 Z M 78.796875 3.75 "/></g></g></g><g fill="#ebfedf" fill-opacity="0.302"><g transform="translate(145.22057, 230.390906)"><g><path d="M 34.21875 3.3125 C 30.09375 3.3125 26.191406 2.351562 22.515625 0.4375 C 18.835938 -1.46875 15.859375 -4.628906 13.578125 -9.046875 C 11.296875 -13.460938 10.15625 -19.273438 10.15625 -26.484375 C 10.15625 -34.285156 11.695312 -42.125 14.78125 -50 C 17.875 -57.875 21.992188 -65.378906 27.140625 -72.515625 C 32.296875 -79.648438 38.035156 -85.972656 44.359375 -91.484375 C 50.691406 -97.003906 57.242188 -101.382812 64.015625 -104.625 C 70.785156 -107.863281 77.1875 -109.484375 83.21875 -109.484375 C 86.15625 -109.484375 88.910156 -108.929688 91.484375 -107.828125 C 94.066406 -106.722656 96.535156 -105.210938 98.890625 -103.296875 L 116.765625 -110.140625 L 118.53125 -109.046875 L 99.328125 -24.5 C 98.296875 -20.382812 97.78125 -17 97.78125 -14.34375 C 97.78125 -11.257812 99.179688 -9.71875 101.984375 -9.71875 C 104.035156 -9.71875 106.421875 -10.671875 109.140625 -12.578125 C 111.867188 -14.492188 115 -17.070312 118.53125 -20.3125 L 120.296875 -18.546875 C 118.085938 -15.015625 115.328125 -11.59375 112.015625 -8.28125 C 108.710938 -4.96875 105.035156 -2.207031 100.984375 0 C 96.941406 2.207031 92.640625 3.3125 88.078125 3.3125 C 83.066406 3.3125 79.015625 1.804688 75.921875 -1.203125 C 72.835938 -4.222656 71.296875 -8.898438 71.296875 -15.234375 C 71.296875 -17.296875 71.367188 -19.28125 71.515625 -21.1875 C 65.628906 -14.5625 59.410156 -8.820312 52.859375 -3.96875 C 46.316406 0.882812 40.101562 3.3125 34.21875 3.3125 Z M 36.203125 -36.421875 C 36.203125 -28.617188 37.488281 -22.988281 40.0625 -19.53125 C 42.632812 -16.070312 46.054688 -14.34375 50.328125 -14.34375 C 53.859375 -14.34375 57.390625 -15.445312 60.921875 -17.65625 C 64.453125 -19.863281 68.28125 -23.03125 72.40625 -27.15625 C 72.695312 -28.914062 73.0625 -30.753906 73.5 -32.671875 L 87.40625 -96.234375 C 85.5 -98.585938 83.21875 -100.207031 80.5625 -101.09375 C 77.914062 -101.976562 75.5625 -102.421875 73.5 -102.421875 C 67.175781 -102.421875 60.554688 -98.664062 53.640625 -91.15625 C 48.191406 -85.125 43.921875 -77.175781 40.828125 -67.3125 C 37.742188 -57.457031 36.203125 -47.160156 36.203125 -36.421875 Z M 36.203125 -36.421875 "/></g></g></g><g fill="#ebfedf" fill-opacity="0.302"><g transform="translate(268.16974, 230.390906)"><g><path d="M 31.78125 3.3125 C 27.21875 3.3125 23.425781 2.097656 20.40625 -0.328125 C 17.394531 -2.753906 15.890625 -6.320312 15.890625 -11.03125 C 15.890625 -13.976562 16.179688 -17.179688 16.765625 -20.640625 C 17.359375 -24.097656 18.023438 -27.8125 18.765625 -31.78125 L 34 -101.53125 L 15.671875 -101.53125 L 16.328125 -104.1875 L 24.28125 -105.0625 C 28.40625 -105.507812 32.007812 -106.539062 35.09375 -108.15625 C 38.1875 -109.78125 41.128906 -112.0625 43.921875 -115 L 65.109375 -136.40625 L 68.421875 -136.40625 L 62.25 -106.171875 L 86.3125 -106.171875 L 85.203125 -101.53125 L 61.140625 -101.53125 L 45.90625 -28.03125 C 45.320312 -25.238281 44.878906 -22.847656 44.578125 -20.859375 C 44.285156 -18.867188 44.140625 -17.210938 44.140625 -15.890625 C 44.140625 -14.421875 44.582031 -13.242188 45.46875 -12.359375 C 46.351562 -11.472656 47.3125 -11.03125 48.34375 -11.03125 C 50.40625 -11.03125 52.613281 -11.875 54.96875 -13.5625 C 57.320312 -15.257812 60.265625 -17.800781 63.796875 -21.1875 L 66.4375 -18.984375 C 62.757812 -13.535156 57.976562 -8.457031 52.09375 -3.75 C 46.207031 0.957031 39.4375 3.3125 31.78125 3.3125 Z M 31.78125 3.3125 "/></g></g></g><g fill="#ebfedf" fill-opacity="0.302"><g transform="translate(342.336528, 230.390906)"><g><path d="M 7.28125 1.328125 L 5.953125 0 L 26.046875 -96.234375 C 27.222656 -101.828125 28.253906 -106.867188 29.140625 -111.359375 C 30.023438 -115.847656 30.976562 -120.890625 32 -126.484375 C 33.175781 -132.804688 30.75 -137 24.71875 -139.0625 L 21.1875 -140.171875 L 21.625 -142.375 L 63.796875 -154.734375 L 65.34375 -153.1875 L 50.328125 -82.78125 C 57.679688 -90.425781 65.515625 -96.785156 73.828125 -101.859375 C 82.148438 -106.941406 89.84375 -109.484375 96.90625 -109.484375 C 101.613281 -109.484375 105.472656 -108.046875 108.484375 -105.171875 C 111.503906 -102.304688 113.015625 -97.859375 113.015625 -91.828125 C 113.015625 -88.734375 112.71875 -85.53125 112.125 -82.21875 C 111.539062 -78.90625 110.804688 -75.484375 109.921875 -71.953125 L 98.890625 -26.921875 C 98.296875 -24.128906 97.703125 -21.738281 97.109375 -19.75 C 96.523438 -17.769531 96.234375 -16.191406 96.234375 -15.015625 C 96.234375 -11.921875 97.5625 -10.375 100.21875 -10.375 C 104.039062 -10.375 109.410156 -13.613281 116.328125 -20.09375 L 118.3125 -18.09375 C 114.78125 -12.65625 110 -7.726562 103.96875 -3.3125 C 97.9375 1.101562 91.09375 3.3125 83.4375 3.3125 C 78.582031 3.3125 74.828125 2.171875 72.171875 -0.109375 C 69.523438 -2.390625 68.203125 -5.59375 68.203125 -9.71875 C 68.203125 -12.800781 68.570312 -16 69.3125 -19.3125 C 70.050781 -22.625 70.929688 -26.046875 71.953125 -29.578125 L 81.890625 -68.421875 C 82.921875 -72.398438 83.835938 -76.046875 84.640625 -79.359375 C 85.453125 -82.671875 85.859375 -85.503906 85.859375 -87.859375 C 85.859375 -93.003906 83.429688 -95.578125 78.578125 -95.578125 C 71.367188 -95.578125 61.878906 -89.691406 50.109375 -77.921875 L 43.484375 -47.234375 C 41.566406 -38.253906 39.910156 -30.125 38.515625 -22.84375 C 37.117188 -15.5625 35.757812 -7.945312 34.4375 0 Z M 7.28125 1.328125 "/></g></g></g><g fill="#ebfedf" fill-opacity="0.302"><g transform="translate(462.636879, 230.390906)"><g><path d="M 48.5625 3.3125 C 37.519531 3.3125 28.539062 -0.289062 21.625 -7.5 C 14.707031 -14.71875 11.25 -24.945312 11.25 -38.1875 C 11.25 -47.601562 12.867188 -56.578125 16.109375 -65.109375 C 19.347656 -73.648438 23.875 -81.265625 29.6875 -87.953125 C 35.5 -94.648438 42.226562 -99.910156 49.875 -103.734375 C 57.53125 -107.566406 65.847656 -109.484375 74.828125 -109.484375 C 84.097656 -109.484375 91.195312 -107.382812 96.125 -103.1875 C 101.0625 -99 103.53125 -93.445312 103.53125 -86.53125 C 103.53125 -80.789062 100.84375 -75.125 95.46875 -69.53125 C 90.09375 -63.9375 82.550781 -58.894531 72.84375 -54.40625 C 63.132812 -49.914062 51.726562 -46.492188 38.625 -44.140625 C 38.769531 -33.992188 40.976562 -26.566406 45.25 -21.859375 C 49.519531 -17.148438 55.40625 -14.796875 62.90625 -14.796875 C 69.238281 -14.796875 75.050781 -16.519531 80.34375 -19.96875 C 85.644531 -23.425781 90.132812 -27.515625 93.8125 -32.234375 L 96.015625 -30.6875 C 93.078125 -24.945312 89.289062 -19.5 84.65625 -14.34375 C 80.019531 -9.195312 74.679688 -4.96875 68.640625 -1.65625 C 62.609375 1.652344 55.914062 3.3125 48.5625 3.3125 Z M 73.28125 -103.53125 C 69.894531 -103.53125 66.253906 -102.054688 62.359375 -99.109375 C 58.460938 -96.160156 54.785156 -92.148438 51.328125 -87.078125 C 47.867188 -82.003906 45 -76.191406 42.71875 -69.640625 C 40.4375 -63.085938 39.070312 -56.132812 38.625 -48.78125 C 54.8125 -53.195312 66.328125 -59.007812 73.171875 -66.21875 C 80.015625 -73.425781 83.4375 -81.59375 83.4375 -90.71875 C 83.4375 -95.132812 82.476562 -98.375 80.5625 -100.4375 C 78.65625 -102.5 76.226562 -103.53125 73.28125 -103.53125 Z M 73.28125 -103.53125 "/></g></g></g><g fill="#ebfedf" fill-opacity="0.302"><g transform="translate(563.291827, 230.390906)"><g><path d="M 10.15625 1.546875 L 7.953125 0 L 24.71875 -80.78125 C 25.457031 -84.613281 25.238281 -87.445312 24.0625 -89.28125 C 22.882812 -91.125 20.894531 -92.632812 18.09375 -93.8125 L 14.796875 -95.359375 L 15.234375 -97.5625 L 53.640625 -109.703125 L 55.84375 -107.71875 L 49.890625 -71.296875 C 52.972656 -78.359375 56.570312 -84.757812 60.6875 -90.5 C 64.8125 -96.238281 69.15625 -100.835938 73.71875 -104.296875 C 78.28125 -107.753906 82.84375 -109.484375 87.40625 -109.484375 C 91.96875 -109.484375 95.644531 -108.269531 98.4375 -105.84375 C 101.238281 -103.414062 102.640625 -100.210938 102.640625 -96.234375 C 102.640625 -92.117188 101.425781 -88.734375 99 -86.078125 C 96.570312 -83.429688 93.296875 -82.109375 89.171875 -82.109375 C 85.941406 -82.109375 82.851562 -82.953125 79.90625 -84.640625 C 76.957031 -86.335938 74.085938 -88.804688 71.296875 -92.046875 C 66.148438 -88.222656 61.734375 -83.253906 58.046875 -77.140625 C 54.367188 -71.035156 50.988281 -64.378906 47.90625 -57.171875 L 45.6875 -47.015625 C 44.070312 -39.210938 42.523438 -31.410156 41.046875 -23.609375 C 39.578125 -15.816406 38.109375 -7.945312 36.640625 0 Z M 10.15625 1.546875 "/></g></g></g><g fill="#ebfedf" fill-opacity="0.502"><g transform="translate(1.727282, 228.829939)"><g><path d="M 78.796875 3.75 C 57.460938 3.75 40.757812 -1.875 28.6875 -13.125 C 16.625 -24.382812 10.59375 -40.171875 10.59375 -60.484375 C 10.59375 -73.140625 12.765625 -84.875 17.109375 -95.6875 C 21.453125 -106.5 27.554688 -115.953125 35.421875 -124.046875 C 43.296875 -132.140625 52.492188 -138.429688 63.015625 -142.921875 C 73.535156 -147.410156 84.976562 -149.65625 97.34375 -149.65625 C 112.789062 -149.65625 127.140625 -145.976562 140.390625 -138.625 L 135.09375 -103.96875 L 132.875 -103.96875 L 124.5 -126.921875 C 122.144531 -133.691406 119.3125 -138.4375 116 -141.15625 C 112.6875 -143.882812 107.351562 -145.25 100 -145.25 C 88.664062 -145.25 78.65625 -141.53125 69.96875 -134.09375 C 61.289062 -126.664062 54.519531 -116.515625 49.65625 -103.640625 C 44.800781 -90.765625 42.375 -76.082031 42.375 -59.59375 C 42.375 -47.382812 44.03125 -36.863281 47.34375 -28.03125 C 50.65625 -19.207031 55.109375 -12.4375 60.703125 -7.71875 C 66.296875 -3.007812 72.625 -0.65625 79.6875 -0.65625 C 83.507812 -0.65625 86.5625 -1.425781 88.84375 -2.96875 C 91.125 -4.519531 92.632812 -7.578125 93.375 -12.140625 L 94.6875 -18.984375 C 95.425781 -23.691406 96.3125 -29.132812 97.34375 -35.3125 C 98.375 -41.5 99.257812 -47.460938 100 -53.203125 C 101.46875 -60.992188 98.300781 -66.140625 90.5 -68.640625 L 85.640625 -70.1875 L 86.09375 -72.40625 L 145.90625 -72.40625 L 145.46875 -70.1875 L 140.609375 -67.984375 C 135.160156 -65.773438 131.847656 -61.65625 130.671875 -55.625 L 121.1875 -5.515625 C 114.707031 -2.722656 108.191406 -0.480469 101.640625 1.203125 C 95.097656 2.898438 87.484375 3.75 78.796875 3.75 Z M 78.796875 3.75 "/></g></g></g><g fill="#ebfedf" fill-opacity="0.502"><g transform="translate(143.659603, 228.829939)"><g><path d="M 34.21875 3.3125 C 30.09375 3.3125 26.191406 2.351562 22.515625 0.4375 C 18.835938 -1.46875 15.859375 -4.628906 13.578125 -9.046875 C 11.296875 -13.460938 10.15625 -19.273438 10.15625 -26.484375 C 10.15625 -34.285156 11.695312 -42.125 14.78125 -50 C 17.875 -57.875 21.992188 -65.378906 27.140625 -72.515625 C 32.296875 -79.648438 38.035156 -85.972656 44.359375 -91.484375 C 50.691406 -97.003906 57.242188 -101.382812 64.015625 -104.625 C 70.785156 -107.863281 77.1875 -109.484375 83.21875 -109.484375 C 86.15625 -109.484375 88.910156 -108.929688 91.484375 -107.828125 C 94.066406 -106.722656 96.535156 -105.210938 98.890625 -103.296875 L 116.765625 -110.140625 L 118.53125 -109.046875 L 99.328125 -24.5 C 98.296875 -20.382812 97.78125 -17 97.78125 -14.34375 C 97.78125 -11.257812 99.179688 -9.71875 101.984375 -9.71875 C 104.035156 -9.71875 106.421875 -10.671875 109.140625 -12.578125 C 111.867188 -14.492188 115 -17.070312 118.53125 -20.3125 L 120.296875 -18.546875 C 118.085938 -15.015625 115.328125 -11.59375 112.015625 -8.28125 C 108.710938 -4.96875 105.035156 -2.207031 100.984375 0 C 96.941406 2.207031 92.640625 3.3125 88.078125 3.3125 C 83.066406 3.3125 79.015625 1.804688 75.921875 -1.203125 C 72.835938 -4.222656 71.296875 -8.898438 71.296875 -15.234375 C 71.296875 -17.296875 71.367188 -19.28125 71.515625 -21.1875 C 65.628906 -14.5625 59.410156 -8.820312 52.859375 -3.96875 C 46.316406 0.882812 40.101562 3.3125 34.21875 3.3125 Z M 36.203125 -36.421875 C 36.203125 -28.617188 37.488281 -22.988281 40.0625 -19.53125 C 42.632812 -16.070312 46.054688 -14.34375 50.328125 -14.34375 C 53.859375 -14.34375 57.390625 -15.445312 60.921875 -17.65625 C 64.453125 -19.863281 68.28125 -23.03125 72.40625 -27.15625 C 72.695312 -28.914062 73.0625 -30.753906 73.5 -32.671875 L 87.40625 -96.234375 C 85.5 -98.585938 83.21875 -100.207031 80.5625 -101.09375 C 77.914062 -101.976562 75.5625 -102.421875 73.5 -102.421875 C 67.175781 -102.421875 60.554688 -98.664062 53.640625 -91.15625 C 48.191406 -85.125 43.921875 -77.175781 40.828125 -67.3125 C 37.742188 -57.457031 36.203125 -47.160156 36.203125 -36.421875 Z M 36.203125 -36.421875 "/></g></g></g><g fill="#ebfedf" fill-opacity="0.502"><g transform="translate(266.608773, 228.829939)"><g><path d="M 31.78125 3.3125 C 27.21875 3.3125 23.425781 2.097656 20.40625 -0.328125 C 17.394531 -2.753906 15.890625 -6.320312 15.890625 -11.03125 C 15.890625 -13.976562 16.179688 -17.179688 16.765625 -20.640625 C 17.359375 -24.097656 18.023438 -27.8125 18.765625 -31.78125 L 34 -101.53125 L 15.671875 -101.53125 L 16.328125 -104.1875 L 24.28125 -105.0625 C 28.40625 -105.507812 32.007812 -106.539062 35.09375 -108.15625 C 38.1875 -109.78125 41.128906 -112.0625 43.921875 -115 L 65.109375 -136.40625 L 68.421875 -136.40625 L 62.25 -106.171875 L 86.3125 -106.171875 L 85.203125 -101.53125 L 61.140625 -101.53125 L 45.90625 -28.03125 C 45.320312 -25.238281 44.878906 -22.847656 44.578125 -20.859375 C 44.285156 -18.867188 44.140625 -17.210938 44.140625 -15.890625 C 44.140625 -14.421875 44.582031 -13.242188 45.46875 -12.359375 C 46.351562 -11.472656 47.3125 -11.03125 48.34375 -11.03125 C 50.40625 -11.03125 52.613281 -11.875 54.96875 -13.5625 C 57.320312 -15.257812 60.265625 -17.800781 63.796875 -21.1875 L 66.4375 -18.984375 C 62.757812 -13.535156 57.976562 -8.457031 52.09375 -3.75 C 46.207031 0.957031 39.4375 3.3125 31.78125 3.3125 Z M 31.78125 3.3125 "/></g></g></g><g fill="#ebfedf" fill-opacity="0.502"><g transform="translate(340.775561, 228.829939)"><g><path d="M 7.28125 1.328125 L 5.953125 0 L 26.046875 -96.234375 C 27.222656 -101.828125 28.253906 -106.867188 29.140625 -111.359375 C 30.023438 -115.847656 30.976562 -120.890625 32 -126.484375 C 33.175781 -132.804688 30.75 -137 24.71875 -139.0625 L 21.1875 -140.171875 L 21.625 -142.375 L 63.796875 -154.734375 L 65.34375 -153.1875 L 50.328125 -82.78125 C 57.679688 -90.425781 65.515625 -96.785156 73.828125 -101.859375 C 82.148438 -106.941406 89.84375 -109.484375 96.90625 -109.484375 C 101.613281 -109.484375 105.472656 -108.046875 108.484375 -105.171875 C 111.503906 -102.304688 113.015625 -97.859375 113.015625 -91.828125 C 113.015625 -88.734375 112.71875 -85.53125 112.125 -82.21875 C 111.539062 -78.90625 110.804688 -75.484375 109.921875 -71.953125 L 98.890625 -26.921875 C 98.296875 -24.128906 97.703125 -21.738281 97.109375 -19.75 C 96.523438 -17.769531 96.234375 -16.191406 96.234375 -15.015625 C 96.234375 -11.921875 97.5625 -10.375 100.21875 -10.375 C 104.039062 -10.375 109.410156 -13.613281 116.328125 -20.09375 L 118.3125 -18.09375 C 114.78125 -12.65625 110 -7.726562 103.96875 -3.3125 C 97.9375 1.101562 91.09375 3.3125 83.4375 3.3125 C 78.582031 3.3125 74.828125 2.171875 72.171875 -0.109375 C 69.523438 -2.390625 68.203125 -5.59375 68.203125 -9.71875 C 68.203125 -12.800781 68.570312 -16 69.3125 -19.3125 C 70.050781 -22.625 70.929688 -26.046875 71.953125 -29.578125 L 81.890625 -68.421875 C 82.921875 -72.398438 83.835938 -76.046875 84.640625 -79.359375 C 85.453125 -82.671875 85.859375 -85.503906 85.859375 -87.859375 C 85.859375 -93.003906 83.429688 -95.578125 78.578125 -95.578125 C 71.367188 -95.578125 61.878906 -89.691406 50.109375 -77.921875 L 43.484375 -47.234375 C 41.566406 -38.253906 39.910156 -30.125 38.515625 -22.84375 C 37.117188 -15.5625 35.757812 -7.945312 34.4375 0 Z M 7.28125 1.328125 "/></g></g></g><g fill="#ebfedf" fill-opacity="0.502"><g transform="translate(461.075913, 228.829939)"><g><path d="M 48.5625 3.3125 C 37.519531 3.3125 28.539062 -0.289062 21.625 -7.5 C 14.707031 -14.71875 11.25 -24.945312 11.25 -38.1875 C 11.25 -47.601562 12.867188 -56.578125 16.109375 -65.109375 C 19.347656 -73.648438 23.875 -81.265625 29.6875 -87.953125 C 35.5 -94.648438 42.226562 -99.910156 49.875 -103.734375 C 57.53125 -107.566406 65.847656 -109.484375 74.828125 -109.484375 C 84.097656 -109.484375 91.195312 -107.382812 96.125 -103.1875 C 101.0625 -99 103.53125 -93.445312 103.53125 -86.53125 C 103.53125 -80.789062 100.84375 -75.125 95.46875 -69.53125 C 90.09375 -63.9375 82.550781 -58.894531 72.84375 -54.40625 C 63.132812 -49.914062 51.726562 -46.492188 38.625 -44.140625 C 38.769531 -33.992188 40.976562 -26.566406 45.25 -21.859375 C 49.519531 -17.148438 55.40625 -14.796875 62.90625 -14.796875 C 69.238281 -14.796875 75.050781 -16.519531 80.34375 -19.96875 C 85.644531 -23.425781 90.132812 -27.515625 93.8125 -32.234375 L 96.015625 -30.6875 C 93.078125 -24.945312 89.289062 -19.5 84.65625 -14.34375 C 80.019531 -9.195312 74.679688 -4.96875 68.640625 -1.65625 C 62.609375 1.652344 55.914062 3.3125 48.5625 3.3125 Z M 73.28125 -103.53125 C 69.894531 -103.53125 66.253906 -102.054688 62.359375 -99.109375 C 58.460938 -96.160156 54.785156 -92.148438 51.328125 -87.078125 C 47.867188 -82.003906 45 -76.191406 42.71875 -69.640625 C 40.4375 -63.085938 39.070312 -56.132812 38.625 -48.78125 C 54.8125 -53.195312 66.328125 -59.007812 73.171875 -66.21875 C 80.015625 -73.425781 83.4375 -81.59375 83.4375 -90.71875 C 83.4375 -95.132812 82.476562 -98.375 80.5625 -100.4375 C 78.65625 -102.5 76.226562 -103.53125 73.28125 -103.53125 Z M 73.28125 -103.53125 "/></g></g></g><g fill="#ebfedf" fill-opacity="0.502"><g transform="translate(561.73086, 228.829939)"><g><path d="M 10.15625 1.546875 L 7.953125 0 L 24.71875 -80.78125 C 25.457031 -84.613281 25.238281 -87.445312 24.0625 -89.28125 C 22.882812 -91.125 20.894531 -92.632812 18.09375 -93.8125 L 14.796875 -95.359375 L 15.234375 -97.5625 L 53.640625 -109.703125 L 55.84375 -107.71875 L 49.890625 -71.296875 C 52.972656 -78.359375 56.570312 -84.757812 60.6875 -90.5 C 64.8125 -96.238281 69.15625 -100.835938 73.71875 -104.296875 C 78.28125 -107.753906 82.84375 -109.484375 87.40625 -109.484375 C 91.96875 -109.484375 95.644531 -108.269531 98.4375 -105.84375 C 101.238281 -103.414062 102.640625 -100.210938 102.640625 -96.234375 C 102.640625 -92.117188 101.425781 -88.734375 99 -86.078125 C 96.570312 -83.429688 93.296875 -82.109375 89.171875 -82.109375 C 85.941406 -82.109375 82.851562 -82.953125 79.90625 -84.640625 C 76.957031 -86.335938 74.085938 -88.804688 71.296875 -92.046875 C 66.148438 -88.222656 61.734375 -83.253906 58.046875 -77.140625 C 54.367188 -71.035156 50.988281 -64.378906 47.90625 -57.171875 L 45.6875 -47.015625 C 44.070312 -39.210938 42.523438 -31.410156 41.046875 -23.609375 C 39.578125 -15.816406 38.109375 -7.945312 36.640625 0 Z M 10.15625 1.546875 "/></g></g></g><g fill="#fdf6e0" fill-opacity="1"><g transform="translate(0.166316, 227.268972)"><g><path d="M 78.796875 3.75 C 57.460938 3.75 40.757812 -1.875 28.6875 -13.125 C 16.625 -24.382812 10.59375 -40.171875 10.59375 -60.484375 C 10.59375 -73.140625 12.765625 -84.875 17.109375 -95.6875 C 21.453125 -106.5 27.554688 -115.953125 35.421875 -124.046875 C 43.296875 -132.140625 52.492188 -138.429688 63.015625 -142.921875 C 73.535156 -147.410156 84.976562 -149.65625 97.34375 -149.65625 C 112.789062 -149.65625 127.140625 -145.976562 140.390625 -138.625 L 135.09375 -103.96875 L 132.875 -103.96875 L 124.5 -126.921875 C 122.144531 -133.691406 119.3125 -138.4375 116 -141.15625 C 112.6875 -143.882812 107.351562 -145.25 100 -145.25 C 88.664062 -145.25 78.65625 -141.53125 69.96875 -134.09375 C 61.289062 -126.664062 54.519531 -116.515625 49.65625 -103.640625 C 44.800781 -90.765625 42.375 -76.082031 42.375 -59.59375 C 42.375 -47.382812 44.03125 -36.863281 47.34375 -28.03125 C 50.65625 -19.207031 55.109375 -12.4375 60.703125 -7.71875 C 66.296875 -3.007812 72.625 -0.65625 79.6875 -0.65625 C 83.507812 -0.65625 86.5625 -1.425781 88.84375 -2.96875 C 91.125 -4.519531 92.632812 -7.578125 93.375 -12.140625 L 94.6875 -18.984375 C 95.425781 -23.691406 96.3125 -29.132812 97.34375 -35.3125 C 98.375 -41.5 99.257812 -47.460938 100 -53.203125 C 101.46875 -60.992188 98.300781 -66.140625 90.5 -68.640625 L 85.640625 -70.1875 L 86.09375 -72.40625 L 145.90625 -72.40625 L 145.46875 -70.1875 L 140.609375 -67.984375 C 135.160156 -65.773438 131.847656 -61.65625 130.671875 -55.625 L 121.1875 -5.515625 C 114.707031 -2.722656 108.191406 -0.480469 101.640625 1.203125 C 95.097656 2.898438 87.484375 3.75 78.796875 3.75 Z M 78.796875 3.75 "/></g></g></g><g fill="#fdf6e0" fill-opacity="1"><g transform="translate(142.098636, 227.268972)"><g><path d="M 34.21875 3.3125 C 30.09375 3.3125 26.191406 2.351562 22.515625 0.4375 C 18.835938 -1.46875 15.859375 -4.628906 13.578125 -9.046875 C 11.296875 -13.460938 10.15625 -19.273438 10.15625 -26.484375 C 10.15625 -34.285156 11.695312 -42.125 14.78125 -50 C 17.875 -57.875 21.992188 -65.378906 27.140625 -72.515625 C 32.296875 -79.648438 38.035156 -85.972656 44.359375 -91.484375 C 50.691406 -97.003906 57.242188 -101.382812 64.015625 -104.625 C 70.785156 -107.863281 77.1875 -109.484375 83.21875 -109.484375 C 86.15625 -109.484375 88.910156 -108.929688 91.484375 -107.828125 C 94.066406 -106.722656 96.535156 -105.210938 98.890625 -103.296875 L 116.765625 -110.140625 L 118.53125 -109.046875 L 99.328125 -24.5 C 98.296875 -20.382812 97.78125 -17 97.78125 -14.34375 C 97.78125 -11.257812 99.179688 -9.71875 101.984375 -9.71875 C 104.035156 -9.71875 106.421875 -10.671875 109.140625 -12.578125 C 111.867188 -14.492188 115 -17.070312 118.53125 -20.3125 L 120.296875 -18.546875 C 118.085938 -15.015625 115.328125 -11.59375 112.015625 -8.28125 C 108.710938 -4.96875 105.035156 -2.207031 100.984375 0 C 96.941406 2.207031 92.640625 3.3125 88.078125 3.3125 C 83.066406 3.3125 79.015625 1.804688 75.921875 -1.203125 C 72.835938 -4.222656 71.296875 -8.898438 71.296875 -15.234375 C 71.296875 -17.296875 71.367188 -19.28125 71.515625 -21.1875 C 65.628906 -14.5625 59.410156 -8.820312 52.859375 -3.96875 C 46.316406 0.882812 40.101562 3.3125 34.21875 3.3125 Z M 36.203125 -36.421875 C 36.203125 -28.617188 37.488281 -22.988281 40.0625 -19.53125 C 42.632812 -16.070312 46.054688 -14.34375 50.328125 -14.34375 C 53.859375 -14.34375 57.390625 -15.445312 60.921875 -17.65625 C 64.453125 -19.863281 68.28125 -23.03125 72.40625 -27.15625 C 72.695312 -28.914062 73.0625 -30.753906 73.5 -32.671875 L 87.40625 -96.234375 C 85.5 -98.585938 83.21875 -100.207031 80.5625 -101.09375 C 77.914062 -101.976562 75.5625 -102.421875 73.5 -102.421875 C 67.175781 -102.421875 60.554688 -98.664062 53.640625 -91.15625 C 48.191406 -85.125 43.921875 -77.175781 40.828125 -67.3125 C 37.742188 -57.457031 36.203125 -47.160156 36.203125 -36.421875 Z M 36.203125 -36.421875 "/></g></g></g><g fill="#fdf6e0" fill-opacity="1"><g transform="translate(265.047806, 227.268972)"><g><path d="M 31.78125 3.3125 C 27.21875 3.3125 23.425781 2.097656 20.40625 -0.328125 C 17.394531 -2.753906 15.890625 -6.320312 15.890625 -11.03125 C 15.890625 -13.976562 16.179688 -17.179688 16.765625 -20.640625 C 17.359375 -24.097656 18.023438 -27.8125 18.765625 -31.78125 L 34 -101.53125 L 15.671875 -101.53125 L 16.328125 -104.1875 L 24.28125 -105.0625 C 28.40625 -105.507812 32.007812 -106.539062 35.09375 -108.15625 C 38.1875 -109.78125 41.128906 -112.0625 43.921875 -115 L 65.109375 -136.40625 L 68.421875 -136.40625 L 62.25 -106.171875 L 86.3125 -106.171875 L 85.203125 -101.53125 L 61.140625 -101.53125 L 45.90625 -28.03125 C 45.320312 -25.238281 44.878906 -22.847656 44.578125 -20.859375 C 44.285156 -18.867188 44.140625 -17.210938 44.140625 -15.890625 C 44.140625 -14.421875 44.582031 -13.242188 45.46875 -12.359375 C 46.351562 -11.472656 47.3125 -11.03125 48.34375 -11.03125 C 50.40625 -11.03125 52.613281 -11.875 54.96875 -13.5625 C 57.320312 -15.257812 60.265625 -17.800781 63.796875 -21.1875 L 66.4375 -18.984375 C 62.757812 -13.535156 57.976562 -8.457031 52.09375 -3.75 C 46.207031 0.957031 39.4375 3.3125 31.78125 3.3125 Z M 31.78125 3.3125 "/></g></g></g><g fill="#fdf6e0" fill-opacity="1"><g transform="translate(339.214594, 227.268972)"><g><path d="M 7.28125 1.328125 L 5.953125 0 L 26.046875 -96.234375 C 27.222656 -101.828125 28.253906 -106.867188 29.140625 -111.359375 C 30.023438 -115.847656 30.976562 -120.890625 32 -126.484375 C 33.175781 -132.804688 30.75 -137 24.71875 -139.0625 L 21.1875 -140.171875 L 21.625 -142.375 L 63.796875 -154.734375 L 65.34375 -153.1875 L 50.328125 -82.78125 C 57.679688 -90.425781 65.515625 -96.785156 73.828125 -101.859375 C 82.148438 -106.941406 89.84375 -109.484375 96.90625 -109.484375 C 101.613281 -109.484375 105.472656 -108.046875 108.484375 -105.171875 C 111.503906 -102.304688 113.015625 -97.859375 113.015625 -91.828125 C 113.015625 -88.734375 112.71875 -85.53125 112.125 -82.21875 C 111.539062 -78.90625 110.804688 -75.484375 109.921875 -71.953125 L 98.890625 -26.921875 C 98.296875 -24.128906 97.703125 -21.738281 97.109375 -19.75 C 96.523438 -17.769531 96.234375 -16.191406 96.234375 -15.015625 C 96.234375 -11.921875 97.5625 -10.375 100.21875 -10.375 C 104.039062 -10.375 109.410156 -13.613281 116.328125 -20.09375 L 118.3125 -18.09375 C 114.78125 -12.65625 110 -7.726562 103.96875 -3.3125 C 97.9375 1.101562 91.09375 3.3125 83.4375 3.3125 C 78.582031 3.3125 74.828125 2.171875 72.171875 -0.109375 C 69.523438 -2.390625 68.203125 -5.59375 68.203125 -9.71875 C 68.203125 -12.800781 68.570312 -16 69.3125 -19.3125 C 70.050781 -22.625 70.929688 -26.046875 71.953125 -29.578125 L 81.890625 -68.421875 C 82.921875 -72.398438 83.835938 -76.046875 84.640625 -79.359375 C 85.453125 -82.671875 85.859375 -85.503906 85.859375 -87.859375 C 85.859375 -93.003906 83.429688 -95.578125 78.578125 -95.578125 C 71.367188 -95.578125 61.878906 -89.691406 50.109375 -77.921875 L 43.484375 -47.234375 C 41.566406 -38.253906 39.910156 -30.125 38.515625 -22.84375 C 37.117188 -15.5625 35.757812 -7.945312 34.4375 0 Z M 7.28125 1.328125 "/></g></g></g><g fill="#fdf6e0" fill-opacity="1"><g transform="translate(459.514946, 227.268972)"><g><path d="M 48.5625 3.3125 C 37.519531 3.3125 28.539062 -0.289062 21.625 -7.5 C 14.707031 -14.71875 11.25 -24.945312 11.25 -38.1875 C 11.25 -47.601562 12.867188 -56.578125 16.109375 -65.109375 C 19.347656 -73.648438 23.875 -81.265625 29.6875 -87.953125 C 35.5 -94.648438 42.226562 -99.910156 49.875 -103.734375 C 57.53125 -107.566406 65.847656 -109.484375 74.828125 -109.484375 C 84.097656 -109.484375 91.195312 -107.382812 96.125 -103.1875 C 101.0625 -99 103.53125 -93.445312 103.53125 -86.53125 C 103.53125 -80.789062 100.84375 -75.125 95.46875 -69.53125 C 90.09375 -63.9375 82.550781 -58.894531 72.84375 -54.40625 C 63.132812 -49.914062 51.726562 -46.492188 38.625 -44.140625 C 38.769531 -33.992188 40.976562 -26.566406 45.25 -21.859375 C 49.519531 -17.148438 55.40625 -14.796875 62.90625 -14.796875 C 69.238281 -14.796875 75.050781 -16.519531 80.34375 -19.96875 C 85.644531 -23.425781 90.132812 -27.515625 93.8125 -32.234375 L 96.015625 -30.6875 C 93.078125 -24.945312 89.289062 -19.5 84.65625 -14.34375 C 80.019531 -9.195312 74.679688 -4.96875 68.640625 -1.65625 C 62.609375 1.652344 55.914062 3.3125 48.5625 3.3125 Z M 73.28125 -103.53125 C 69.894531 -103.53125 66.253906 -102.054688 62.359375 -99.109375 C 58.460938 -96.160156 54.785156 -92.148438 51.328125 -87.078125 C 47.867188 -82.003906 45 -76.191406 42.71875 -69.640625 C 40.4375 -63.085938 39.070312 -56.132812 38.625 -48.78125 C 54.8125 -53.195312 66.328125 -59.007812 73.171875 -66.21875 C 80.015625 -73.425781 83.4375 -81.59375 83.4375 -90.71875 C 83.4375 -95.132812 82.476562 -98.375 80.5625 -100.4375 C 78.65625 -102.5 76.226562 -103.53125 73.28125 -103.53125 Z M 73.28125 -103.53125 "/></g></g></g><g fill="#fdf6e0" fill-opacity="1"><g transform="translate(560.169893, 227.268972)"><g><path d="M 10.15625 1.546875 L 7.953125 0 L 24.71875 -80.78125 C 25.457031 -84.613281 25.238281 -87.445312 24.0625 -89.28125 C 22.882812 -91.125 20.894531 -92.632812 18.09375 -93.8125 L 14.796875 -95.359375 L 15.234375 -97.5625 L 53.640625 -109.703125 L 55.84375 -107.71875 L 49.890625 -71.296875 C 52.972656 -78.359375 56.570312 -84.757812 60.6875 -90.5 C 64.8125 -96.238281 69.15625 -100.835938 73.71875 -104.296875 C 78.28125 -107.753906 82.84375 -109.484375 87.40625 -109.484375 C 91.96875 -109.484375 95.644531 -108.269531 98.4375 -105.84375 C 101.238281 -103.414062 102.640625 -100.210938 102.640625 -96.234375 C 102.640625 -92.117188 101.425781 -88.734375 99 -86.078125 C 96.570312 -83.429688 93.296875 -82.109375 89.171875 -82.109375 C 85.941406 -82.109375 82.851562 -82.953125 79.90625 -84.640625 C 76.957031 -86.335938 74.085938 -88.804688 71.296875 -92.046875 C 66.148438 -88.222656 61.734375 -83.253906 58.046875 -77.140625 C 54.367188 -71.035156 50.988281 -64.378906 47.90625 -57.171875 L 45.6875 -47.015625 C 44.070312 -39.210938 42.523438 -31.410156 41.046875 -23.609375 C 39.578125 -15.816406 38.109375 -7.945312 36.640625 0 Z M 10.15625 1.546875 "/></g></g></g></g></g><g transform="matrix(1, 0, 0, 1, 844, 418)"><g clip-path="url(#98829cd560)"><g fill="#f8dc8a" fill-opacity="1"><g transform="translate(1.496371, 122.968412)"><g><path d="M 2.625 0 L 2.625 -1.1875 L 4.296875 -1.671875 C 5.890625 -2.148438 6.960938 -2.867188 7.515625 -3.828125 C 8.078125 -4.785156 8.359375 -6.0625 8.359375 -7.65625 C 8.359375 -10.4375 8.378906 -13.441406 8.421875 -16.671875 C 8.460938 -19.898438 8.484375 -22.707031 8.484375 -25.09375 L 8.484375 -30.828125 C 8.484375 -33.304688 8.460938 -35.640625 8.421875 -37.828125 C 8.378906 -40.015625 8.359375 -42.425781 8.359375 -45.0625 C 8.285156 -46.726562 7.988281 -47.976562 7.46875 -48.8125 C 6.945312 -49.65625 5.890625 -50.238281 4.296875 -50.5625 L 2.625 -50.90625 L 2.625 -52.109375 L 24.5 -59.15625 L 25.703125 -57.96875 L 25.34375 -41 L 25.34375 -7.53125 C 25.414062 -5.9375 25.726562 -4.660156 26.28125 -3.703125 C 26.84375 -2.742188 27.882812 -2.023438 29.40625 -1.546875 L 30.59375 -1.1875 L 30.59375 0 Z M 2.625 0 "/></g></g></g><g fill="#f8dc8a" fill-opacity="1"><g transform="translate(42.248792, 122.968412)"><g><path d="M 2.390625 0 L 2.390625 -1.1875 L 4.0625 -1.671875 C 6.851562 -2.472656 8.25 -4.425781 8.25 -7.53125 L 8.25 -44.9375 C 8.25 -46.6875 7.96875 -47.976562 7.40625 -48.8125 C 6.851562 -49.65625 5.78125 -50.238281 4.1875 -50.5625 L 2.390625 -51.03125 L 2.390625 -52.234375 L 22.828125 -59.15625 L 24.015625 -57.96875 L 24.984375 -50.796875 C 27.765625 -53.265625 30.90625 -55.296875 34.40625 -56.890625 C 37.914062 -58.484375 41.382812 -59.28125 44.8125 -59.28125 C 50.070312 -59.28125 54.113281 -57.84375 56.9375 -54.96875 C 59.769531 -52.101562 61.1875 -47.722656 61.1875 -41.828125 L 61.1875 -7.40625 C 61.1875 -4.300781 62.703125 -2.347656 65.734375 -1.546875 L 66.8125 -1.1875 L 66.8125 0 L 38.609375 0 L 38.609375 -1.1875 L 40.15625 -1.671875 C 42.945312 -2.546875 44.34375 -4.5 44.34375 -7.53125 L 44.34375 -45.65625 C 44.34375 -50.75 41.789062 -53.296875 36.6875 -53.296875 C 33.1875 -53.296875 29.363281 -51.546875 25.21875 -48.046875 L 25.21875 -7.40625 C 25.21875 -4.300781 26.613281 -2.347656 29.40625 -1.546875 L 30.46875 -1.1875 L 30.46875 0 Z M 2.390625 0 "/></g></g></g><g fill="#f8dc8a" fill-opacity="1"><g transform="translate(118.613971, 122.968412)"><g><path d="M 2.390625 0 L 2.390625 -1.1875 L 4.0625 -1.671875 C 6.851562 -2.472656 8.25 -4.425781 8.25 -7.53125 L 8.25 -44.9375 C 8.25 -46.6875 7.96875 -47.976562 7.40625 -48.8125 C 6.851562 -49.65625 5.78125 -50.238281 4.1875 -50.5625 L 2.390625 -51.03125 L 2.390625 -52.234375 L 22.828125 -59.15625 L 24.015625 -57.96875 L 24.984375 -50.796875 C 27.765625 -53.265625 30.90625 -55.296875 34.40625 -56.890625 C 37.914062 -58.484375 41.382812 -59.28125 44.8125 -59.28125 C 50.070312 -59.28125 54.113281 -57.84375 56.9375 -54.96875 C 59.769531 -52.101562 61.1875 -47.722656 61.1875 -41.828125 L 61.1875 -7.40625 C 61.1875 -4.300781 62.703125 -2.347656 65.734375 -1.546875 L 66.8125 -1.1875 L 66.8125 0 L 38.609375 0 L 38.609375 -1.1875 L 40.15625 -1.671875 C 42.945312 -2.546875 44.34375 -4.5 44.34375 -7.53125 L 44.34375 -45.65625 C 44.34375 -50.75 41.789062 -53.296875 36.6875 -53.296875 C 33.1875 -53.296875 29.363281 -51.546875 25.21875 -48.046875 L 25.21875 -7.40625 C 25.21875 -4.300781 26.613281 -2.347656 29.40625 -1.546875 L 30.46875 -1.1875 L 30.46875 0 Z M 2.390625 0 "/></g></g></g></g></g></svg>