<svg width="200" height="80" viewBox="0 0 200 80" fill="none" xmlns="http://www.w3.org/2000/svg">
<rect width="200" height="80" fill="#F5F5F5"/>
<path d="M0 0H200V80H0V0Z" fill="#3D5A3E"/>
<g filter="url(#filter0_dd_0_1)">
<path d="M33.492 47.952C28.0787 47.952 23.8413 46.5333 20.78 43.696C17.7187 40.8213 16.188 36.808 16.188 31.656C16.188 28.4453 16.7293 25.4773 17.812 22.752C18.932 19.9893 20.4813 17.5813 22.46 15.528C24.476 13.4747 26.8093 11.888 29.46 10.768C32.148 9.61067 35.06 9.032 38.196 9.032C42.116 9.032 45.756 9.96533 49.116 11.832L47.772 20.624H47.212L45.084 14.8C44.4867 13.0827 43.7587 11.888 42.9 11.216C42.0787 10.5067 40.7347 10.152 38.868 10.152C35.9933 10.152 33.4547 11.104 31.252 13.008C29.0493 14.8747 27.332 17.4507 26.1 20.736C24.868 23.984 24.252 27.6987 24.252 31.88C24.252 34.9787 24.6627 37.648 25.484 39.888C26.3427 42.128 27.4813 43.8453 28.9 45.04C30.3187 46.2347 31.924 46.832 33.716 46.832C34.6867 46.832 35.452 46.6453 36.012 46.272C36.6093 45.8613 37.0013 45.0773 37.188 43.92L37.524 42.184C37.7107 40.9893 37.9347 39.608 38.196 38.04C38.4573 36.472 38.6813 34.96 38.868 33.504C39.2413 31.5253 38.4387 30.2187 36.46 29.584L35.228 29.192L35.34 28.632H50.516L50.404 29.192L49.172 29.752C47.7907 30.312 46.9507 31.3573 46.652 32.888L44.244 45.6C42.6013 46.3093 40.94 46.8693 39.26 47.28C37.6173 47.728 35.6947 47.952 33.492 47.952ZM58.2191 47.84C57.1737 47.84 56.1844 47.5973 55.2511 47.112C54.3177 46.6267 53.5524 45.824 52.9551 44.704C52.3951 43.584 52.1151 42.1093 52.1151 40.28C52.1151 38.3013 52.5071 36.3227 53.2911 34.344C54.0751 32.328 55.1204 30.424 56.4271 28.632C57.7337 26.8027 59.1897 25.1973 60.7951 23.816C62.4004 22.3973 64.0617 21.2773 65.7791 20.456C67.4964 19.6347 69.1204 19.224 70.6511 19.224C71.3977 19.224 72.0884 19.3733 72.7231 19.672C73.3951 19.9333 74.0297 20.3067 74.6271 20.792L79.1631 19.056L79.6111 19.336L74.7391 40.784C74.4777 41.8293 74.3471 42.688 74.3471 43.36C74.3471 44.144 74.7017 44.536 75.4111 44.536C75.9337 44.536 76.5311 44.2933 77.2031 43.808C77.9124 43.3227 78.7151 42.6693 79.6111 41.848L80.0591 42.296C79.4991 43.192 78.7897 44.0693 77.9311 44.928C77.1097 45.7493 76.1764 46.44 75.1311 47C74.1231 47.56 73.0404 47.84 71.8831 47.84C70.6137 47.84 69.5871 47.4667 68.8031 46.72C68.0191 45.936 67.6271 44.7413 67.6271 43.136C67.6271 42.6133 67.6457 42.1093 67.6831 41.624C66.1897 43.304 64.6031 44.76 62.9231 45.992C61.2804 47.224 59.7124 47.84 58.2191 47.84ZM58.7231 37.76C58.7231 39.7387 59.0404 41.176 59.6751 42.072C60.3471 42.9307 61.2244 43.36 62.3071 43.36C63.2031 43.36 64.0991 43.08 64.9951 42.52C65.8911 41.96 66.8617 41.1573 67.9071 40.112C67.9817 39.664 68.0751 39.1973 68.1871 38.712L71.7151 22.584C71.2297 21.9867 70.6511 21.576 69.9791 21.352C69.3071 21.128 68.7097 21.016 68.1871 21.016C66.5817 21.016 64.9017 21.968 63.1471 23.872C61.7657 25.4027 60.6831 27.4187 59.8991 29.92C59.1151 32.4213 58.7231 35.0347 58.7231 37.76ZM88.7749 47.84C87.6176 47.84 86.6469 47.5413 85.8629 46.944C85.1163 46.3093 84.7429 45.3947 84.7429 44.2C84.7429 43.4533 84.8176 42.6507 84.9669 41.792C85.1163 40.896 85.2843 39.944 85.4709 38.936L89.3349 21.24H84.6869L84.8549 20.568L86.8709 20.344C87.9163 20.232 88.8309 19.9707 89.6149 19.56C90.3989 19.1493 91.1456 18.5707 91.8549 17.824L97.2309 12.392H98.0709L96.5029 20.064H102.607L102.327 21.24H96.2229L92.3589 39.888C92.2096 40.5973 92.0976 41.2133 92.0229 41.736C91.9483 42.2213 91.9109 42.632 91.9109 42.968C91.9109 43.3413 92.0229 43.64 92.2469 43.864C92.4709 44.088 92.7136 44.2 92.9749 44.2C93.4976 44.2 94.0576 43.9947 94.6549 43.584C95.2523 43.136 95.9989 42.4827 96.8949 41.624L97.5669 42.184C96.6336 43.5653 95.4203 44.8533 93.9269 46.048C92.4336 47.2427 90.7163 47.84 88.7749 47.84ZM101.371 47.336L101.035 47L106.131 22.584C106.43 21.1653 106.691 19.896 106.915 18.776C107.139 17.6187 107.382 16.3307 107.643 14.912C107.942 13.3067 107.326 12.2427 105.795 11.72L104.899 11.44L105.011 10.88L115.707 7.744L116.099 8.136L112.291 26C114.158 24.0587 116.137 22.4533 118.227 21.184C120.355 19.8773 122.315 19.224 124.107 19.224C125.302 19.224 126.273 19.5973 127.019 20.344C127.803 21.0533 128.195 22.1733 128.195 23.704C128.195 24.488 128.121 25.3093 127.971 26.168C127.822 26.9893 127.635 27.848 127.411 28.744L124.611 40.168C124.462 40.8773 124.313 41.4933 124.163 42.016C124.014 42.5013 123.939 42.8933 123.939 43.192C123.939 43.976 124.275 44.368 124.947 44.368C125.918 44.368 127.281 43.5467 129.035 41.904L129.539 42.408C128.643 43.7893 127.43 45.04 125.899 46.16C124.369 47.28 122.633 47.84 120.691 47.84C119.459 47.84 118.507 47.56 117.835 47C117.163 46.4027 116.827 45.5813 116.827 44.536C116.827 43.752 116.921 42.9493 117.107 42.128C117.294 41.2693 117.518 40.392 117.779 39.496L120.299 29.64C120.561 28.632 120.785 27.7173 120.971 26.896C121.195 26.0373 121.307 25.3093 121.307 24.712C121.307 23.4053 120.691 22.752 119.459 22.752C117.63 22.752 115.222 24.2453 112.235 27.232L110.555 35.016C110.07 37.2933 109.641 39.3653 109.267 41.232C108.931 43.0613 108.595 44.984 108.259 47L101.371 47.336ZM142.359 47.84C139.559 47.84 137.282 46.9253 135.527 45.096C133.772 43.2667 132.895 40.672 132.895 37.312C132.895 34.9227 133.306 32.6453 134.127 30.48C134.948 28.3147 136.087 26.392 137.543 24.712C139.036 22.9947 140.754 21.6507 142.695 20.68C144.636 19.7093 146.746 19.224 149.023 19.224C151.375 19.224 153.167 19.7653 154.399 20.848C155.668 21.8933 156.303 23.2933 156.303 25.048C156.303 26.504 155.612 27.9413 154.231 29.36C152.887 30.7787 150.983 32.0667 148.519 33.224C146.055 34.344 143.162 35.2027 139.839 35.8C139.876 38.376 140.436 40.2613 141.519 41.456C142.602 42.6507 144.095 43.248 145.999 43.248C147.604 43.248 149.079 42.8187 150.423 41.96C151.767 41.064 152.906 40.0187 153.839 38.824L154.399 39.216C153.652 40.672 152.682 42.0533 151.487 43.36C150.33 44.6667 148.986 45.7493 147.455 46.608C145.924 47.4293 144.226 47.84 142.359 47.84ZM148.631 20.736C147.772 20.736 146.839 21.1093 145.831 21.856C144.86 22.6027 143.927 23.6293 143.031 24.936C142.172 26.2053 141.444 27.68 140.847 29.36C140.287 31.0027 139.951 32.7573 139.839 34.624C143.946 33.504 146.858 32.0293 148.575 30.2C150.33 28.3707 151.207 26.2987 151.207 23.984C151.207 22.864 150.964 22.0427 150.479 21.52C149.994 20.9973 149.378 20.736 148.631 20.736ZM158.154 47.392L157.594 47L161.85 26.504C162.037 25.5333 161.981 24.824 161.682 24.376C161.383 23.8907 160.879 23.4987 160.17 23.2L159.33 22.808L159.442 22.248L169.186 19.168L169.746 19.672L168.234 28.912C169.018 27.12 169.933 25.496 170.978 24.04C172.023 22.584 173.125 21.4267 174.282 20.568C175.439 19.672 176.597 19.224 177.754 19.224C178.911 19.224 179.845 19.5413 180.554 20.176C181.263 20.7733 181.618 21.576 181.618 22.584C181.618 23.6293 181.301 24.488 180.666 25.16C180.069 25.832 179.247 26.168 178.202 26.168C177.381 26.168 176.597 25.9627 175.85 25.552C175.103 25.104 174.375 24.4693 173.666 23.648C172.359 24.6187 171.239 25.888 170.306 27.456C169.373 28.9867 168.514 30.6667 167.73 32.496L167.17 35.072C166.759 37.0507 166.367 39.0293 165.994 41.008C165.621 42.9867 165.247 44.984 164.874 47L158.154 47.392Z" fill="#FDF6E0"/>
</g>
<path d="M131.292 73V72.64L131.796 72.496C132.276 72.352 132.6 72.136 132.768 71.848C132.936 71.56 133.02 71.176 133.02 70.696C133.02 69.856 133.02 68.956 133.02 67.996C133.044 67.012 133.056 66.16 133.056 65.44V63.712C133.056 62.968 133.044 62.272 133.02 61.624C133.02 60.952 133.02 60.22 133.02 59.428C132.996 58.924 132.9 58.552 132.732 58.312C132.588 58.048 132.276 57.868 131.796 57.772L131.292 57.664V57.304L137.88 55.18L138.24 55.54L138.132 60.652V70.732C138.156 71.212 138.252 71.596 138.42 71.884C138.588 72.172 138.9 72.388 139.356 72.532L139.716 72.64V73H131.292ZM141.31 73V72.64L141.814 72.496C142.654 72.256 143.074 71.668 143.074 70.732V59.464C143.074 58.936 142.99 58.552 142.822 58.312C142.654 58.048 142.33 57.868 141.85 57.772L141.31 57.628V57.268L147.466 55.18L147.826 55.54L148.114 57.7C148.954 56.956 149.902 56.344 150.958 55.864C152.014 55.384 153.058 55.144 154.09 55.144C155.674 55.144 156.886 55.576 157.726 56.44C158.59 57.304 159.022 58.624 159.022 60.4V70.768C159.022 71.704 159.478 72.292 160.39 72.532L160.714 72.64V73H152.218V72.64L152.686 72.496C153.526 72.232 153.946 71.644 153.946 70.732V59.248C153.946 57.712 153.178 56.944 151.642 56.944C150.586 56.944 149.434 57.472 148.186 58.528V70.768C148.186 71.704 148.606 72.292 149.446 72.532L149.77 72.64V73H141.31ZM162.122 73V72.64L162.626 72.496C163.466 72.256 163.886 71.668 163.886 70.732V59.464C163.886 58.936 163.802 58.552 163.634 58.312C163.466 58.048 163.142 57.868 162.662 57.772L162.122 57.628V57.268L168.278 55.18L168.638 55.54L168.926 57.7C169.766 56.956 170.714 56.344 171.77 55.864C172.826 55.384 173.87 55.144 174.902 55.144C176.486 55.144 177.698 55.576 178.538 56.44C179.402 57.304 179.834 58.624 179.834 60.4V70.768C179.834 71.704 180.29 72.292 181.202 72.532L181.526 72.64V73H173.03V72.64L173.498 72.496C174.338 72.232 174.758 71.644 174.758 70.732V59.248C174.758 57.712 173.99 56.944 172.454 56.944C171.398 56.944 170.246 57.472 168.998 58.528V70.768C168.998 71.704 169.418 72.292 170.258 72.532L170.582 72.64V73H162.122Z" fill="#F8DC8A"/>
<defs>
<filter id="filter0_dd_0_1" x="16.188" y="7.744" width="166.13" height="40.908" filterUnits="userSpaceOnUse" color-interpolation-filters="sRGB">
<feFlood flood-opacity="0" result="BackgroundImageFix"/>
<feColorMatrix in="SourceAlpha" type="matrix" values="0 0 0 0 0 0 0 0 0 0 0 0 0 0 0 0 0 0 127 0" result="hardAlpha"/>
<feOffset dx="0.4" dy="0.4"/>
<feComposite in2="hardAlpha" operator="out"/>
<feColorMatrix type="matrix" values="0 0 0 0 0.921569 0 0 0 0 0.996078 0 0 0 0 0.87451 0 0 0 0.6 0"/>
<feBlend mode="normal" in2="BackgroundImageFix" result="effect1_dropShadow_0_1"/>
<feColorMatrix in="SourceAlpha" type="matrix" values="0 0 0 0 0 0 0 0 0 0 0 0 0 0 0 0 0 0 127 0" result="hardAlpha"/>
<feOffset dx="0.7" dy="0.7"/>
<feComposite in2="hardAlpha" operator="out"/>
<feColorMatrix type="matrix" values="0 0 0 0 0.921569 0 0 0 0 0.996078 0 0 0 0 0.87451 0 0 0 0.25 0"/>
<feBlend mode="normal" in2="effect1_dropShadow_0_1" result="effect2_dropShadow_0_1"/>
<feBlend mode="normal" in="SourceGraphic" in2="effect2_dropShadow_0_1" result="shape"/>
</filter>
</defs>
</svg>